<?xml version="1.0" encoding="UTF-8"?>
<!-- Created with EazyDraw for Mac ( http://www.eazydraw.com/ ) -->

<svg
    version="1.1"
    xmlns:dc="http://purl.org/dc/elements/1.1/"
    xmlns:cc="http://creativecommons.org/ns#"
    xmlns:rdf="http://www.w3.org/1999/02/22-rdf-syntax-ns#"
    xmlns:svg="http://www.w3.org/2000/svg"
    xmlns:xlink="http://www.w3.org/1999/xlink"
    xmlns="http://www.w3.org/2000/svg"
    width="500"
    height="380.384776154"
    viewBox="0, 0, 500, 380.384776154"
    preserveAspectRatio="none"
    id="svg2">
   <defs
       id="defs_201BD2F9"/>
   <metadata
       id="metadata7">
      <rdf:RDF>
         <cc:Work
             rdf:about="">
            <dc:format>image/svg+xml</dc:format>
            <dc:type rdf:resource="http://purl.org/dc/dcmitype/StillImage"/>
            <dc:title></dc:title>
         </cc:Work>
      </rdf:RDF>
   </metadata>
   <g
       id="layer_Paper"
       style="fill:#000000;fill-opacity:1;stroke:#000000;stroke-opacity:1;fill-rule:nonzero;stroke-linecap:square;stroke-linejoin:miter;stroke-width:1;stroke-miterlimit:10">
      <path
          style="fill:#332966;stroke:none"
          id="E1D841F9"
          d="M23.486157,379.887539154 C34.16939,379.887539154 41.461121,374.252179154 41.461121,363.561572154 C41.461121,356.517373154 37.391318,351.627870154 31.625763,349.556047154 C36.713017,347.732842154 40.528458,342.843340154 40.528458,336.627870154
C40.528458,326.765992154 33.236727,320.882014154 22.723068,320.882014154 L0,320.882014154 L0,379.887539154 L23.486157,379.887539154 z M22.214343,346.986986154 L6.443855,346.986986154 L6.443855,326.517373154
L22.214343,326.517373154 C28.912561,326.517373154 34.084603,329.666544154 34.084603,336.710743154 C34.084603,343.754942154 28.912561,346.986986154 22.214343,346.986986154 z M22.892644,374.252179154 L6.443855,374.252179154
L6.443855,352.622345154 L22.892644,352.622345154 C30.35395,352.622345154 35.017266,356.765992154 35.017266,363.395826154 C35.017266,370.025660154 30.35395,374.252179154 22.892644,374.252179154 z M66.935931,379.887539154
L66.935931,320.882014154 L60.492076,320.882014154 L60.492076,379.887539154 L66.935931,379.887539154 z M105.976753,379.887539154 L105.976753,326.517373154 L123.442992,326.517373154 L123.442992,320.882014154
L82.066658,320.882014154 L82.066658,326.517373154 L99.532898,326.517373154 L99.532898,379.887539154 L105.976753,379.887539154 z M184.227971,379.887539154 C190.502251,379.887539154 195.843868,377.981461154 199.489733,374.417925154
C205.558299,368.486397154 205.439993,358.600955154 205.425711,350.535509154 L205.425736,348.898726154 C205.440125,340.918386154 205.55487,332.279804154 199.489733,326.351627154 C195.843868,322.788091154 190.502251,320.882014154 184.227971,320.882014154
L163.539804,320.882014154 L163.539804,379.887539154 L184.227971,379.887539154 z M183.125732,374.252179154 L169.983659,374.252179154 L169.983659,326.517373154 L183.125732,326.517373154 C187.789049,326.517373154 191.858852,327.677594154 194.995992,330.826765154
C198.910895,334.809447154 198.986181,341.662002154 198.981973,348.472103154 L198.981228,352.129666154 C198.966545,358.794118154 198.697355,366.177343154 194.995992,369.942787154 C191.858852,373.091958154 187.789049,374.252179154 183.125732,374.252179154
z M222.760067,379.887539154 L227.592958,366.544997154 L253.961892,366.544997154 L258.794783,379.887539154 L265.662576,379.887539154 L243.533021,320.882014154 L238.106617,320.882014154 L215.892274,379.887539154
L222.760067,379.887539154 z M252.096565,361.075384154 L229.543072,361.075384154 L240.904606,329.915163154 L252.096565,361.075384154 z M285.710982,379.887539154 L285.710982,332.567097154 L317.760683,379.887539154
L323.865388,379.887539154 L323.865388,320.882014154 L317.421533,320.882014154 L317.421533,368.036710154 L285.371832,320.882014154 L279.267127,320.882014154 L279.267127,379.887539154 L285.710982,379.887539154
z M364.008448,380.384776154 C374.776469,380.384776154 383.000863,373.920688154 384.950977,362.815715154 L378.507122,362.815715154 C376.896158,370.025660154 371.554542,374.749417154 364.008448,374.749417154
C360.023432,374.749417154 356.207992,373.257704154 353.579577,370.605771154 C349.764136,366.793616154 349.340199,362.732842154 349.340199,350.384776154 C349.340199,338.036710154 349.764136,333.975936154 353.579577,330.163782154
C356.207992,327.511848154 360.023432,326.020135154 364.008448,326.020135154 C371.554542,326.020135154 376.726583,330.743892154 378.337547,337.953837154 L384.950977,337.953837154 C382.916076,326.848865154 374.861257,320.384776154 364.008448,320.384776154
C358.073318,320.384776154 352.646914,322.539472154 348.57711,326.517373154 C342.896343,332.069859154 342.896343,337.870964154 342.896343,350.384776154 C342.896343,362.898588154 342.896343,368.699693154 348.57711,374.252179154
C352.646914,378.230080154 358.073318,380.384776154 364.008448,380.384776154 z M440.525375,379.887539154 L440.525375,374.252179154 L409.493124,374.252179154 L409.493124,352.953837154 L435.946846,352.953837154
L435.946846,347.318478154 L409.493124,347.318478154 L409.493124,326.517373154 L440.525375,326.517373154 L440.525375,320.882014154 L403.049269,320.882014154 L403.049269,379.887539154 L440.525375,379.887539154
z M464.219646,379.887539154 L464.219646,353.699693154 L478.71832,353.699693154 L492.453906,379.887539154 L500,379.887539154 L485.670901,353.119583154 C493.471357,351.544997154 498.812974,345.909638154 498.812974,337.290853154
C498.812974,327.097483154 491.436456,320.882014154 480.922797,320.882014154 L457.775791,320.882014154 L457.775791,379.887539154 L464.219646,379.887539154 z M480.329284,348.147207154 L464.219646,348.147207154
L464.219646,326.517373154 L480.329284,326.517373154 C487.366652,326.517373154 492.369119,330.163782154 492.369119,337.373726154 C492.369119,344.583671154 487.366652,348.147207154 480.329284,348.147207154
z"/>
      <path
          style="fill:#FF6E42;stroke:none;fill-rule:evenodd"
          id="32D841F9"
          d="M317.019336,34.6030302229 L239.237590069,112.384776154 L317.019336,190.166522085 L345.303607247,161.882250837 C372.640308032,134.545550053 372.640308032,90.2240022549 345.303607247,62.8873014709 L317.019336,34.6030302229
L317.019336,34.6030302229 z"/>
      <g
          id="52D841F9">
         <rect
             style="fill:#857FA4;stroke:none;fill-rule:evenodd"
             id="82D841F9"
             x="148.731493407"
             y="-139.795418567"
             width="50"
             height="50"
             transform="matrix(0.707106781187,0.707106781187,-0.707106781187,0.707106781187,0,0)"/>
         <rect
             style="fill:#5C5485;stroke:none;fill-rule:evenodd"
             id="B2D841F9"
             x="198.731493408"
             y="-139.795418567"
             width="50"
             height="50"
             transform="matrix(0.707106781187,0.707106781187,-0.707106781187,0.707106781187,0,0)"/>
         <path
             style="fill:#332966;stroke:none;fill-rule:evenodd"
             id="D2D841F9"
             d="M274.730014131,77.0294372359 L295.943217567,98.2426406709 C303.753703404,106.053126509 303.753703404,118.716426081 295.943217567,126.526911919 L274.730014131,147.740115354 L274.730014131,147.740115354 L239.374675072,112.384776295
L274.730014131,77.0294372359 z"/>
         <rect
             style="fill:#857FA4;stroke:none;fill-rule:evenodd"
             id="F2D841F9"
             x="198.731493407"
             y="-89.795418567"
             width="50"
             height="50"
             transform="matrix(0.707106781187,0.707106781187,-0.707106781187,0.707106781187,0,0)"/>
         <rect
             style="fill:#5C5485;stroke:none;fill-rule:evenodd"
             id="23D841F9"
             x="248.731493408"
             y="-89.7954185677"
             width="50"
             height="50"
             transform="matrix(0.707106781187,0.707106781187,-0.707106781187,0.707106781187,0,0)"/>
         <rect
             style="fill:#857FA4;stroke:none;fill-rule:evenodd"
             id="43D841F9"
             x="248.731493408"
             y="-39.7954185668"
             width="50"
             height="50"
             transform="matrix(0.707106781187,0.707106781187,-0.707106781187,0.707106781187,0,0)"/>
         <rect
             style="fill:#ADA9C0;stroke:none;fill-rule:evenodd"
             id="63D841F9"
             x="103.251262667"
             y="-103.251262667"
             width="26"
             height="26"
             transform="matrix(0.707106781187,0.707106781187,-0.707106781187,0.707106781187,0,0)"/>
         <rect
             style="fill:#ADA9C0;stroke:none;fill-rule:evenodd"
             id="83D841F9"
             x="154.435028807"
             y="-52.0674964674"
             width="26"
             height="26"
             transform="matrix(0.707106781187,0.707106781187,-0.707106781187,0.707106781187,0,0)"/>
         <rect
             style="fill:#ADA9C0;stroke:none;fill-rule:evenodd"
             id="A3D841F9"
             x="231.509668408"
             y="25.007142433"
             width="26"
             height="26"
             transform="matrix(0.707106781187,0.707106781187,-0.707106781187,0.707106781187,0,0)"/>
         <rect
             style="fill:#EAE9F0;stroke:none;fill-rule:evenodd"
             id="C3D841F9"
             x="177.334523808"
             y="1.400540432293"
             width="26"
             height="26"
             transform="matrix(0.707106781187,0.707106781187,-0.707106781187,0.707106781187,0,0)"/>
         <rect
             style="fill:#EAE9F0;stroke:none;fill-rule:evenodd"
             id="F3D841F9"
             x="134.908116908"
             y="43.8269474329"
             width="26"
             height="26"
             transform="matrix(0.707106781187,0.707106781187,-0.707106781187,0.707106781187,0,0)"/>
         <rect
             style="fill:#D6D4E1;stroke:none;fill-rule:evenodd"
             id="14D841F9"
             x="103.251262668"
             y="-15.5700215674"
             width="26"
             height="26"
             transform="matrix(0.707106781187,0.707106781187,-0.707106781187,0.707106781187,0,0)"/>
      </g>
   </g>
</svg>
