<?xml version="1.0" encoding="UTF-8" standalone="yes"?>
<!DOCTYPE svg PUBLIC "-//W3C//DTD SVG 1.1//EN" "http://www.w3.org/Graphics/SVG/1.1/DTD/svg11.dtd">

<svg width="200" height="200" viewBox="0 0 200 200" xmlns="http://www.w3.org/2000/svg" xmlns:xlink="http://www.w3.org/1999/xlink" version="1.1" baseProfile="full">
    <g transform="scale(1,-1) translate(0,-200)">
        <path d="M 86.336018 91.236120 L 71.618555 91.236120 Q 40.541338 91.236120 28.918964 82.365667 Q 17.233425 73.431398 13.380355 51.223357 Q 12.748704 47.585833 12.432879 44.395022 Q 12.117053 41.204212 12.117053 38.268666 Q 12.117053 30.674537 14.169918 25.409700 Q 16.222783 20.144863 21.339154 16.890236 Q 26.455526 13.635609 35.203889 12.199745 Q 43.952252 10.763880 57.406413 10.763880 L 72.250206 10.763880 L 70.607914 1.000000 L 54.184994 1.000000 Q 20.896999 1.000000 9.085130 11.848756 Q 1.126330 19.251436 1.000000 35.907466 Q 1.000000 39.608807 1.410573 43.756860 Q 1.821146 47.904914 2.642292 52.499681 Q 7.253343 78.983408 22.286631 89.959796 Q 37.383084 101.000000 71.492225 101.000000 L 88.041475 101.000000 Z M 28.666303 54.860881 L 77.935062 54.860881 L 76.482266 46.564773 L 27.213506 46.564773 Z" transform="scale(1.000000,1.000000) translate(101.958525,49.000000)" fill="#f2354b" opacity="1.000000"></path>
        <path d="M 18.433561 101.000000 L 34.982811 101.000000 Q 49.826604 101.000000 60.027763 99.021698 Q 70.228923 97.043395 76.482266 92.703893 Q 82.735608 88.364391 85.483289 81.344608 Q 88.230970 74.324825 88.230970 64.305680 Q 88.230970 46.373325 83.525172 34.216337 Q 78.819373 22.059349 69.786768 14.688577 Q 60.754162 7.317805 47.584243 4.158902 Q 34.414325 1.000000 17.422920 1.000000 L 1.000000 1.000000 L 2.642292 10.763880 L 17.486085 10.763880 Q 32.456208 10.763880 43.604844 13.348437 Q 54.753480 15.932993 62.143793 22.027441 Q 69.534107 28.121889 73.197682 38.141034 Q 76.861256 48.160179 76.861256 63.093172 Q 76.861256 68.262285 76.008528 72.378430 Q 75.155799 76.494576 73.102934 79.621570 Q 71.050069 82.748564 67.670738 84.950223 Q 64.291406 87.151883 59.238200 88.555839 Q 54.184994 89.959796 47.331583 90.597958 Q 40.478172 91.236120 31.445567 91.236120 L 16.728104 91.236120 Z" transform="scale(1.000000,1.000000) translate(9.000000,49.000000)" fill="#1059ff" opacity="1.000000"></path>
    </g>
</svg>